# xmcd
#
# Track frame offsets:
#	150
#	12077
#	28122
#	43293
#	58395
#	75574
#	91468
#	108729
#	125788
#	139659
#	156627
#	172422
#
# Disc length: 2538 seconds
#
# Revision: 2
# Processed by: cddbd v1.5.2PL0 Copyright (c) Steve Scherf et al.
# Submitted via: audiograbber 1.83.01
#
DISCID=b509e80c
DTITLE=Shy'M - Prende L'Air
DYEAR=2013
DGENRE=Chanson
TTITLE0=Shy'M - Je Sais
TTITLE1=Shy'M - Prendre L'Air
TTITLE2=Shy'M - Je Suis Moi
TTITLE3=Shy'M - Tourne
TTITLE4=Shy'M - Ne Pars Pas
TTITLE5=Shy'M - J'Entends Encore Les Mots
TTITLE6=Shy'M - En Apesenteur
TTITLE7=Shy'M - Mauvaises Nouvelles
TTITLE8=Shy'M - Déjà Vu
TTITLE9=Shy'M - Elle Danse
TTITLE10=Shy'M - Loin Derrière
TTITLE11=Shy'M - Petit Tom
EXTD=
EXTT0=
EXTT1=
EXTT2=
EXTT3=
EXTT4=
EXTT5=
EXTT6=
EXTT7=
EXTT8=
EXTT9=
EXTT10=
EXTT11=
PLAYORDER=
